<?xml version="1.0" encoding="UTF-8"?>
<svg id="Warstwa_1" data-name="Warstwa 1" xmlns="http://www.w3.org/2000/svg" viewBox="0 0 66 42">
  <defs>
    <style>
      .cls-1 {
        fill: #f68c1e;
        stroke: #f68c1e;
        stroke-width: 5px;
      }
    </style>
  </defs>
  <path class="cls-1" d="M58.98,25.94v-2.5h-28.54v-4.88h33.06v17.98c0,1.72-1.26,2.95-3.1,2.95H5.1c-.91,0-1.5-.31-1.88-.72-.39-.42-.73-1.15-.73-2.24V5.7c0-1.1.34-1.91.78-2.42.41-.47,1-.78,1.83-.78h58.39v4.88H12.01c-1.52,0-2.91.59-3.85,1.79-.87,1.11-1.15,2.48-1.15,3.7v16.23c0,1.21.27,2.59.97,3.76.74,1.24,2.09,2.37,4.03,2.37h41.48c1.82,0,3.23-1,4.1-2.12.87-1.11,1.39-2.56,1.39-4.01v-3.16Z"/>
</svg>